<?xml version="1.0" standalone="no"?>
<!DOCTYPE svg PUBLIC "-//W3C//DTD SVG 20010904//EN"
 "http://www.w3.org/TR/2001/REC-SVG-20010904/DTD/svg10.dtd">
<svg version="1.0" xmlns="http://www.w3.org/2000/svg"
 width="216.000000pt" height="216.000000pt" viewBox="0 0 216.000000 216.000000"
 preserveAspectRatio="xMidYMid meet">

<g transform="translate(0.000000,216.000000) scale(0.100000,-0.100000)"
fill="#000000" stroke="none">
<path d="M0 1080 l0 -1080 1080 0 1080 0 0 1080 0 1080 -1080 0 -1080 0 0
-1080z m1275 894 c44 -17 45 -28 45 -676 l0 -614 110 -89 c122 -100 140 -127
116 -173 -21 -40 -72 -82 -101 -82 -13 0 -46 18 -73 40 l-50 39 -4 -128 c-4
-161 -10 -171 -103 -171 -100 0 -99 -1 -103 260 l-3 217 -65 52 -64 52 0 -274
c0 -261 -1 -274 -20 -295 -25 -27 -60 -36 -107 -29 -76 13 -73 -4 -73 402 l0
363 -70 56 -70 57 0 -414 c0 -487 6 -462 -100 -462 -107 0 -100 -37 -100 545
l0 497 -137 113 c-76 62 -144 123 -151 137 -18 33 -9 64 32 107 51 55 78 50
176 -29 l80 -66 0 256 0 256 25 24 c35 36 115 36 150 0 l25 -24 0 -339 0 -339
64 -51 c35 -29 66 -52 70 -52 3 0 6 177 6 394 l0 395 28 21 c22 18 36 21 81
18 96 -8 91 23 91 -527 l0 -477 63 -51 62 -51 5 540 5 540 24 19 c23 19 100
26 136 13z m540 -29 l25 -24 0 -884 c0 -1023 10 -932 -100 -932 -110 0 -100
-91 -100 932 l0 884 25 24 c19 20 34 25 75 25 41 0 56 -5 75 -25z"/>
</g>
</svg>
