<?xml version="1.0" standalone="no"?>
<!DOCTYPE svg PUBLIC "-//W3C//DTD SVG 20010904//EN"
 "http://www.w3.org/TR/2001/REC-SVG-20010904/DTD/svg10.dtd">
<svg version="1.0" xmlns="http://www.w3.org/2000/svg"
 width="95.000000pt" height="89.000000pt" viewBox="0 0 95.000000 89.000000"
 preserveAspectRatio="xMidYMid meet">

<g transform="translate(0.000000,89.000000) scale(0.100000,-0.100000)"
fill="#000000" stroke="none">
<path d="M228 603 c-2 -54 -3 -123 -2 -154 l1 -56 -56 -19 c-49 -17 -56 -22
-53 -44 4 -37 15 -42 60 -26 48 17 54 12 52 -42 -4 -78 -2 -82 30 -82 l30 0 0
78 c0 75 1 79 25 90 54 25 67 10 64 -75 -3 -90 -2 -93 31 -93 17 0 30 3 30 8
1 4 1 51 2 104 l1 97 33 11 c19 6 38 9 43 6 5 -3 9 -50 9 -103 0 -54 1 -104 1
-110 1 -8 14 -13 31 -13 l30 0 1 115 c1 63 2 119 3 124 2 15 18 27 52 39 l32
10 1 -136 c0 -76 1 -140 1 -144 0 -5 14 -8 30 -8 l30 0 0 153 0 152 58 20 c50
18 57 23 54 45 -4 34 -19 40 -65 24 -22 -8 -42 -14 -44 -14 -2 0 -4 24 -3 53
3 87 3 87 -29 87 -35 0 -41 -17 -36 -99 l4 -58 -39 -16 c-22 -8 -42 -12 -44
-9 -2 4 -4 41 -4 82 -1 41 -1 81 -1 88 -1 7 -14 12 -31 12 -34 0 -32 7 -30
-122 l1 -86 -36 -12 c-20 -7 -39 -10 -42 -6 -3 3 -8 55 -11 116 l-5 110 -27 0
c-35 0 -37 -7 -36 -147 l1 -113 -33 -11 c-50 -17 -47 -27 -50 169 l-2 102 -30
0 -30 0 -2 -97z"/>
</g>
</svg>
