<?xml version="1.0" standalone="no"?>
<!DOCTYPE svg PUBLIC "-//W3C//DTD SVG 20010904//EN"
 "http://www.w3.org/TR/2001/REC-SVG-20010904/DTD/svg10.dtd">
<svg version="1.0" xmlns="http://www.w3.org/2000/svg"
 width="229.000000pt" height="225.000000pt" viewBox="0 0 229.000000 225.000000"
 preserveAspectRatio="xMidYMid meet">

<g transform="translate(0.000000,225.000000) scale(0.100000,-0.100000)"
fill="#000000" stroke="none">
<path d="M1260 1983 c-8 -3 -23 -12 -32 -21 -17 -14 -18 -53 -18 -554 0 -383
-3 -538 -11 -538 -6 0 -37 21 -69 48 l-58 47 -4 481 c-4 558 3 524 -98 524
-101 0 -94 31 -100 -430 l-5 -403 -67 54 -67 54 -1 336 c0 325 -1 337 -21 363
-18 23 -28 26 -78 26 -47 0 -61 -4 -79 -23 -21 -22 -22 -32 -24 -277 l-3 -253
-60 49 c-116 96 -125 99 -175 58 -46 -39 -64 -80 -50 -113 6 -14 74 -77 151
-140 l139 -114 0 -488 c0 -350 3 -495 12 -514 23 -51 150 -57 174 -7 5 9 11
202 14 429 l5 412 68 -56 67 -55 0 -359 c0 -344 1 -360 20 -379 39 -39 120
-38 156 1 17 19 19 45 24 294 l5 274 68 -56 67 -55 0 -214 c0 -201 1 -215 20
-234 28 -28 122 -28 150 0 18 18 20 33 20 150 0 72 3 130 6 130 3 0 29 -18 56
-40 65 -51 90 -51 140 0 29 31 38 49 38 75 0 31 -9 42 -120 132 l-120 98 0
626 c0 609 -1 626 -20 644 -20 18 -93 29 -120 18z"/>
<path d="M1752 1947 l-22 -23 0 -872 c0 -641 3 -878 12 -897 25 -56 151 -56
176 0 9 19 12 255 12 894 0 863 0 868 -21 895 -18 23 -28 26 -78 26 -47 0 -61
-4 -79 -23z"/>
</g>
</svg>
